<?xml version="1.0" encoding="UTF-8" standalone="no"?>
<!-- Created with Inkscape (http://www.inkscape.org/) -->
<svg
   xmlns:dc="http://purl.org/dc/elements/1.1/"
   xmlns:cc="http://creativecommons.org/ns#"
   xmlns:rdf="http://www.w3.org/1999/02/22-rdf-syntax-ns#"
   xmlns:svg="http://www.w3.org/2000/svg"
   xmlns="http://www.w3.org/2000/svg"
   xmlns:xlink="http://www.w3.org/1999/xlink"
   xmlns:sodipodi="http://sodipodi.sourceforge.net/DTD/sodipodi-0.dtd"
   xmlns:inkscape="http://www.inkscape.org/namespaces/inkscape"
   width="400"
   height="300"
   id="svg1872"
   sodipodi:version="0.32"
   inkscape:version="0.46"
   inkscape:export-filename="/home/torkild/privat/eclipse-ws-resheim/no.resheim.aggregator.rcp/splash.png"
   inkscape:export-xdpi="90"
   inkscape:export-ydpi="90"
   sodipodi:docbase="/home/torkildr/privat/Logoer"
   sodipodi:docname="splash.svg"
   inkscape:output_extension="org.inkscape.output.svg.inkscape"
   version="1.0">
  <defs
     id="defs1874">
    <inkscape:perspective
       sodipodi:type="inkscape:persp3d"
       inkscape:vp_x="0 : 600 : 1"
       inkscape:vp_y="0 : 1000 : 0"
       inkscape:vp_z="1600 : 600 : 1"
       inkscape:persp3d-origin="800 : 400 : 1"
       id="perspective18" />
    <linearGradient
       id="linearGradient2770">
      <stop
         style="stop-color:black;stop-opacity:1;"
         offset="0"
         id="stop2772" />
      <stop
         style="stop-color:#006ed1;stop-opacity:1;"
         offset="1"
         id="stop2774" />
    </linearGradient>
    <linearGradient
       inkscape:collect="always"
       xlink:href="#linearGradient2770"
       id="linearGradient2417"
       gradientUnits="userSpaceOnUse"
       x1="800"
       y1="1200.0004"
       x2="800"
       y2="-5.6624413e-07" />
    <radialGradient
       r="147.98685"
       fy="-339.37613"
       fx="394.29498"
       cy="-339.37613"
       cx="394.29498"
       gradientTransform="matrix(0.793134,-0.609048,0.618597,0.80557,-39.90851,888.5741)"
       gradientUnits="userSpaceOnUse"
       id="radialGradient2808"
       xlink:href="#linearGradient11634"
       inkscape:collect="always" />
    <radialGradient
       r="91.21875"
       fy="70.889038"
       fx="60.917553"
       cy="70.889038"
       cx="60.917553"
       gradientTransform="matrix(1.002207,0,0,0.91676,808.1466,293.3426)"
       gradientUnits="userSpaceOnUse"
       id="radialGradient1997"
       xlink:href="#linearGradient3098"
       inkscape:collect="always" />
    <radialGradient
       r="147.98685"
       fy="312.01935"
       fx="-107.46296"
       cy="312.01935"
       cx="-107.46296"
       gradientTransform="matrix(0.793134,-0.609048,0.618597,0.80557,-40.39322,608.5738)"
       gradientUnits="userSpaceOnUse"
       id="radialGradient1992"
       xlink:href="#linearGradient11634"
       inkscape:collect="always" />
    <radialGradient
       r="91.21875"
       fy="355.76321"
       fx="876.06158"
       cy="355.76321"
       cx="876.06158"
       gradientTransform="matrix(1,0,0,0.91676,6.4e-5,26.45182)"
       gradientUnits="userSpaceOnUse"
       id="radialGradient5315"
       xlink:href="#linearGradient3098"
       inkscape:collect="always" />
    <linearGradient
       id="linearGradient3098">
      <stop
         id="stop3100"
         offset="0"
         style="stop-color:#ffe2c3;stop-opacity:1;" />
      <stop
         id="stop3102"
         offset="1"
         style="stop-color:#cc5c19;stop-opacity:1;" />
    </linearGradient>
    <radialGradient
       spreadMethod="reflect"
       gradientTransform="matrix(1.154701,0,0,0.866025,-142.0735,10.78347)"
       gradientUnits="userSpaceOnUse"
       xlink:href="#linearGradient5897"
       id="radialGradient5935"
       fy="1336.1542"
       fx="1527.9156"
       r="117.82099"
       cy="1344.402"
       cx="1515.5438" />
    <linearGradient
       id="linearGradient5897">
      <stop
         id="stop5899"
         offset="0.0000000"
         style="stop-color:#ffffff;stop-opacity:1.0000000" />
      <stop
         id="stop5901"
         offset="1.0000000"
         style="stop-color:#000000;stop-opacity:0.51041669" />
    </linearGradient>
    <linearGradient
       gradientTransform="matrix(1.143673,0,0,0.85882,-142.0735,14.07115)"
       gradientUnits="userSpaceOnUse"
       xlink:href="#linearGradient2071"
       id="linearGradient2077"
       y2="694.80493"
       x2="1401.7228"
       y1="694.80493"
       x1="-2.7210875" />
    <linearGradient
       id="linearGradient2071">
      <stop
         id="stop2073"
         offset="0"
         style="stop-color:#000000;stop-opacity:0.96078432;" />
      <stop
         id="stop2075"
         offset="1"
         style="stop-color:#000000;stop-opacity:1;" />
    </linearGradient>
    <radialGradient
       spreadMethod="reflect"
       gradientTransform="matrix(1.154701,0,0,0.866025,-142.0735,10.78345)"
       gradientUnits="userSpaceOnUse"
       xlink:href="#linearGradient5897"
       id="radialGradient8217"
       fy="1336.1542"
       fx="1527.9156"
       r="117.82099"
       cy="1344.402"
       cx="1515.5438" />
    <radialGradient
       spreadMethod="reflect"
       gradientTransform="matrix(1.154701,0,0,0.866025,-142.0735,10.78347)"
       gradientUnits="userSpaceOnUse"
       xlink:href="#linearGradient5897"
       id="radialGradient5905"
       fy="684.57281"
       fx="1082.5312"
       r="148.69026"
       cy="676.32489"
       cx="1101.089" />
    <radialGradient
       gradientTransform="translate(-170.7148,12.95737)"
       spreadMethod="pad"
       gradientUnits="userSpaceOnUse"
       xlink:href="#linearGradient4800"
       id="radialGradient9075"
       fy="308.39999"
       fx="466.79999"
       r="721.08179"
       cy="308.39999"
       cx="466.79999" />
    <linearGradient
       id="linearGradient4800">
      <stop
         id="stop4802"
         offset="0.0000000"
         style="stop-color:#ffffff;stop-opacity:1.0000000" />
      <stop
         id="stop4804"
         offset="1.0000000"
         style="stop-color:#ffffff;stop-opacity:0.0000000" />
    </linearGradient>
    <linearGradient
       gradientTransform="matrix(1.048036,0,0,0.954166,-164.8011,9.620224)"
       gradientUnits="userSpaceOnUse"
       xlink:href="#linearGradient2334"
       id="linearGradient2340"
       y2="156.52316"
       x2="517.83942"
       y1="156.52316"
       x1="-604.13733" />
    <linearGradient
       id="linearGradient2334">
      <stop
         id="stop2336"
         offset="0.0000000"
         style="stop-color:#000050;stop-opacity:1.0000000" />
      <stop
         id="stop2338"
         offset="1.0000000"
         style="stop-color:#000050;stop-opacity:0.0000000" />
    </linearGradient>
    <radialGradient
       gradientTransform="translate(-168.5124,12.95737)"
       spreadMethod="pad"
       gradientUnits="userSpaceOnUse"
       xlink:href="#linearGradient4800"
       id="radialGradient4806"
       fy="308.39999"
       fx="466.79999"
       r="721.08179"
       cy="308.39999"
       cx="466.79999" />
    <radialGradient
       gradientTransform="matrix(1.100535,0,0,0.908649,-532.3816,33.27965)"
       gradientUnits="userSpaceOnUse"
       xlink:href="#linearGradient11634"
       id="radialGradient11640"
       fy="677.37958"
       fx="711.01758"
       r="244.93611"
       cy="677.37958"
       cx="711.01758" />
    <linearGradient
       id="linearGradient11634">
      <stop
         id="stop11636"
         offset="0.0000000"
         style="stop-color:#ffffff;stop-opacity:1.0000000" />
      <stop
         id="stop11638"
         offset="1.0000000"
         style="stop-color:#ffffff;stop-opacity:0.0000000" />
    </linearGradient>
    <marker
       id="Arrow2Sstart"
       style="overflow:visible"
       orient="auto"
       refY="0"
       refX="0">
      <path
         id="arrowMarkerPath2"
         style="font-size:12px;fill-rule:evenodd;stroke-width:0.625;stroke-linejoin:round"
         transform="matrix(0.3,0,0,0.3,-1.5,0)"
         d="M 8.7185878,4.0337352 L -2.2072895,0.016013256 L 8.7185884,-4.0017078 C 6.97309,-1.6296469 6.9831476,1.6157441 8.7185878,4.0337352 z " />
    </marker>
    <linearGradient
       id="linearGradient5288">
      <stop
         style="stop-color:#2d2dac;stop-opacity:1;"
         offset="0"
         id="stop5290" />
      <stop
         id="stop6209"
         offset="1"
         style="stop-color:#161656;stop-opacity:1;" />
      <stop
         style="stop-color:#000000;stop-opacity:0.50999999;"
         offset="1"
         id="stop5292" />
    </linearGradient>
    <linearGradient
       id="linearGradient6203">
      <stop
         id="stop6205"
         offset="0.0000000"
         style="stop-color:#000050;stop-opacity:1.0000000" />
      <stop
         id="stop6207"
         offset="1.0000000"
         style="stop-color:#00009f;stop-opacity:1.0000000" />
    </linearGradient>
    <inkscape:perspective
       id="perspective57"
       inkscape:persp3d-origin="109.75782 : 73.333308 : 1"
       inkscape:vp_z="219.51564 : 109.99996 : 1"
       inkscape:vp_y="0 : 1000 : 0"
       inkscape:vp_x="0 : 109.99996 : 1"
       sodipodi:type="inkscape:persp3d" />
  </defs>
  <sodipodi:namedview
     id="base"
     pagecolor="#ffffff"
     bordercolor="#666666"
     borderopacity="1.0"
     inkscape:pageopacity="0.0"
     inkscape:pageshadow="2"
     inkscape:zoom="1.2720905"
     inkscape:cx="184.71091"
     inkscape:cy="109.19193"
     inkscape:current-layer="layer1"
     inkscape:document-units="px"
     showguides="true"
     inkscape:guide-bbox="true"
     inkscape:window-width="1600"
     inkscape:window-height="1139"
     inkscape:window-x="-5"
     inkscape:window-y="-3"
     showgrid="false"
     borderlayer="true">
    <sodipodi:guide
       orientation="horizontal"
       position="603.33333"
       id="guide1880" />
    <sodipodi:guide
       orientation="vertical"
       position="1496.3499"
       id="guide9016" />
    <sodipodi:guide
       orientation="horizontal"
       position="-29.455707"
       id="guide9018" />
  </sodipodi:namedview>
  <metadata
     id="metadata1877">
    <rdf:RDF>
      <cc:Work
         rdf:about="">
        <dc:format>image/svg+xml</dc:format>
        <dc:type
           rdf:resource="http://purl.org/dc/dcmitype/StillImage" />
      </cc:Work>
    </rdf:RDF>
  </metadata>
  <g
     inkscape:label="Layer 1"
     id="layer1"
     inkscape:groupmode="layer">
    <g
       id="g2411"
       transform="matrix(0.2514533,0,0,0.2514533,1.2417692,0.4851647)">
      <path
         id="rect1882"
         d="M 0.5,0.49999949 C 533.5,0.49999949 1066.5,0.49999949 1599.5,0.49999949 C 1599.5,400.1668 1599.5,799.8336 1599.5,1199.5004 C 1066.5,1199.5004 533.5,1199.5004 0.5,1199.5004 C 0.5,799.8336 0.5,400.1668 0.5,0.49999949 z"
         style="opacity:1;fill:url(#linearGradient2417);fill-opacity:1;fill-rule:evenodd;stroke:#000000;stroke-width:1.00000012;stroke-linecap:round;stroke-linejoin:bevel;stroke-miterlimit:4;stroke-dasharray:1.00000017, 2.00000033;stroke-dashoffset:0;stroke-opacity:1" />
      <path
         id="rect1347"
         d="M 1001.3747,-212.23529 C 1000.6938,-212.23961 1000.0134,-212.212 999.33135,-212.19359 C 989.41105,-211.92562 979.41315,-209.26624 970.18217,-203.93675 L 38.368939,334.05039 C 8.8298391,351.10478 -1.2040609,388.62264 15.850239,418.16171 L 548.58304,1340.9257 C 565.63744,1370.4648 603.15531,1380.4991 632.69438,1363.4444 L 1564.5077,825.4573 C 1594.0468,808.40291 1604.0807,770.92672 1587.0264,741.38769 L 1054.2935,-181.3764 C 1042.935,-201.04988 1022.4836,-212.10105 1001.3747,-212.23529 z M 882.48455,-13.237177 C 968.69866,-13.579217 1052.5601,30.728386 1098.5385,110.36517 C 1166.9402,228.84021 1125.768,380.79206 1006.7125,449.64612 L 1471.5141,754.27335 L 609.13321,1252.1856 L 541.24364,144.60186 L 635.69687,206.52814 C 644.84894,131.42395 687.82633,61.187886 758.5903,20.332286 C 797.69673,-2.2458239 840.37998,-13.070134 882.48455,-13.237177 z M 635.69687,206.52814 C 629.43527,257.91544 638.92172,311.54417 666.72256,359.69663 C 735.15557,478.22597 887.36414,518.53899 1006.5457,449.72952 C 1006.6003,449.698 1006.6577,449.67776 1006.7125,449.64612 L 635.69687,206.52814 z"
         style="opacity:0.14364642;fill:#000000;fill-opacity:1;fill-rule:evenodd;stroke:#000000;stroke-width:2;stroke-linecap:round;stroke-linejoin:bevel;stroke-miterlimit:4;stroke-dasharray:6, 6;stroke-dashoffset:0;stroke-opacity:1" />
      <path
         id="path4201"
         d="M 1545.5938,237.96875 C 1457.6123,238.56289 1517.1506,409.87989 1424.6562,418.21875 C 1330.6938,426.68997 1360.988,241.61775 1269.1875,263.375 C 1177.387,285.13225 1287.5198,436.89964 1199.75,471.5 C 1111.9803,506.10036 1088.9208,320.0109 1006.9688,366.75 C 925.01649,413.48911 1073.4664,528.07359 999,586 C 924.53363,643.92639 849.99589,471.87804 784.53125,539.8125 C 719.06662,607.74695 893.75522,675.87792 838.625,752.4375 C 783.49479,828.99706 663.48602,684.90509 619.8125,768.53125 C 576.139,852.15739 762.98397,868.2909 731.65625,957.28125 C 700.32852,1046.2716 544.56298,941.83212 526.21875,1034.375 C 507.87454,1126.9179 691.70598,1089.7884 686.71875,1184 C 681.73149,1278.2116 502.87255,1221.85 511.34375,1315.8125 C 519.81497,1409.775 685.71151,1322.3871 707.46875,1414.1875 C 729.226,1505.988 541.7434,1502.3239 576.34375,1590.0938 C 610.94411,1677.8635 745.47963,1547.2353 792.21875,1629.1875 C 838.95786,1711.1397 658.04237,1760.44 715.96875,1834.9062 C 773.89514,1909.3726 866.19055,1746.1291 934.125,1811.5938 C 1002.0594,1877.0584 842.34669,1975.3384 918.90625,2030.4688 C 995.46581,2085.599 1038.0614,1902.9828 1121.6875,1946.6562 C 1205.3136,1990.3298 1079.7596,2129.6409 1168.75,2160.9688 C 1257.7403,2192.2965 1247.1446,2005.0622 1339.6875,2023.4062 C 1432.2304,2041.7505 1351.007,2210.7626 1445.2188,2215.75 C 1539.4304,2220.7373 1476.5061,2044.0962 1570.4688,2035.625 C 1664.4312,2027.1538 1634.1059,2212.1948 1725.9062,2190.4375 C 1817.7067,2168.6803 1707.5739,2016.9129 1795.3438,1982.3125 C 1883.1135,1947.7121 1906.1728,2133.8328 1988.125,2087.0938 C 2070.0772,2040.3546 1921.6587,1925.7389 1996.125,1867.8125 C 2070.5914,1809.8861 2145.1289,1981.9658 2210.5938,1914.0312 C 2276.0584,1846.0968 2101.3385,1777.9659 2156.4688,1701.4062 C 2211.599,1624.8467 2331.6078,1768.9386 2375.2812,1685.3125 C 2418.9548,1601.6864 2232.1408,1585.5217 2263.4688,1496.5312 C 2294.7965,1407.5409 2450.5309,1512.0116 2468.875,1419.4688 C 2487.2192,1326.9258 2303.419,1364.0553 2308.4062,1269.8438 C 2313.3935,1175.6321 2492.2524,1231.9625 2483.7812,1138 C 2475.31,1044.0375 2309.4136,1131.4569 2287.6562,1039.6562 C 2265.899,947.85577 2453.3817,951.51973 2418.7812,863.75 C 2384.1809,775.98029 2249.6454,906.60845 2202.9062,824.65625 C 2156.1671,742.70406 2337.0826,693.37264 2279.1562,618.90625 C 2221.2299,544.43988 2128.9345,707.68341 2061,642.21875 C 1993.0656,576.75412 2152.7472,478.47396 2076.1875,423.34375 C 1999.6279,368.21354 1957.0637,550.82974 1873.4375,507.15625 C 1789.8114,463.48275 1915.3653,324.20273 1826.375,292.875 C 1737.3847,261.54727 1747.9805,448.78172 1655.4375,430.4375 C 1562.8946,412.09329 1644.118,243.04976 1549.9062,238.0625 C 1548.4342,237.98457 1546.9902,237.95932 1545.5938,237.96875 z M 1501.4688,530.65625 C 1680.5117,532.90311 1843.3985,602.58024 1965.9062,715.4375 C 1845.192,802.64433 1665.7652,1049.3174 1577.75,1013.7188 C 1490.3911,978.38558 1527.9864,679.08227 1501.4688,530.65625 z M 1395.5625,537.28125 C 1388.9011,687.77112 1466.5725,979.97005 1384.625,1026.9688 C 1301.2532,1074.7844 1086.6073,849.34291 955.6875,782.09375 C 1064.3762,651.8715 1219.5065,561.74719 1395.5625,537.28125 z M 2038.0938,792.75 C 2134.0824,912.44293 2191.5312,1064.3437 2191.5312,1229.5938 C 2191.5312,1246.831 2190.916,1263.9181 2189.6875,1280.8438 C 2050.7148,1236.905 1736.2276,1251.3981 1708.375,1157.9062 C 1680.9659,1065.9031 1942.1845,906.49661 2038.0938,792.75 z M 894.84375,867.09375 C 1002.0875,967.37543 1289.4972,1091.5649 1274.4688,1187.6562 C 1259.2001,1285.2838 938.0716,1313.3618 809.25,1377.5 C 798.96316,1329.8144 793.53125,1280.3414 793.53125,1229.5938 C 793.53126,1096.9086 830.55949,972.8078 894.84375,867.09375 z M 1765.8438,1321.9062 C 1879.9726,1322.284 2067.7831,1382.9849 2174.4688,1383.7188 C 2134.7863,1559.8396 2028.5308,1710.8342 1883.5938,1808.9062 C 1831.8419,1672.0391 1622.9727,1431.4854 1678.1875,1350.9375 C 1692.8452,1329.5548 1724.519,1321.7695 1765.8438,1321.9062 z M 1270.5938,1355.4375 C 1296.8074,1355.1712 1317.514,1360.7605 1330.2188,1374.7812 C 1396.0297,1447.4091 1219.2759,1716.5137 1187.5625,1858.6562 C 1027.3868,1780.8057 901.35179,1643.5579 838.125,1475.625 C 953.14903,1461.0425 1160.3587,1356.5575 1270.5938,1355.4375 z M 1512.875,1447.3438 C 1608.7162,1447.0099 1705.3194,1746.3986 1794.3438,1860.1562 C 1702.9631,1904.0042 1600.6005,1928.5938 1492.5312,1928.5938 C 1419.3799,1928.5937 1348.8495,1917.3413 1282.5625,1896.4688 C 1356.6673,1771.1845 1412.7643,1454.1273 1509.9062,1447.4688 C 1510.8946,1447.401 1511.8865,1447.3472 1512.875,1447.3438 z"
         style="opacity:0.13812154;fill:#ffffff;fill-opacity:1;fill-rule:evenodd;stroke:#000000;stroke-width:2;stroke-linecap:round;stroke-linejoin:bevel;stroke-miterlimit:4;stroke-dasharray:6, 6;stroke-dashoffset:0;stroke-opacity:1" />
      <path
         id="path9027"
         d="M 9.7389263,-702.06843 C -78.242574,-701.47429 -18.704274,-530.15729 -111.19867,-521.81843 C -205.16107,-513.34721 -174.86687,-698.41943 -266.66737,-676.66218 C -358.46787,-654.90493 -248.33507,-503.13754 -336.10487,-468.53718 C -423.87457,-433.93682 -446.93407,-620.02628 -528.88607,-573.28718 C -610.83837,-526.54807 -462.38847,-411.96359 -536.85487,-354.03718 C -611.32127,-296.11079 -685.85897,-468.15914 -751.32367,-400.22468 C -816.78827,-332.29023 -642.09967,-264.15926 -697.22987,-187.59968 C -752.36007,-111.04012 -872.36887,-255.13209 -916.04237,-171.50593 C -959.71587,-87.879791 -772.87097,-71.746281 -804.19867,17.244069 C -835.52637,106.23442 -991.29191,1.7949391 -1009.6361,94.337819 C -1027.9804,186.88072 -844.14887,149.75122 -849.13617,243.96282 C -854.12337,338.17442 -1032.9823,281.81282 -1024.5111,375.77532 C -1016.0399,469.73782 -850.14337,382.34992 -828.38617,474.15032 C -806.62887,565.95082 -994.11149,562.28672 -959.51117,650.05662 C -924.91077,737.82632 -790.37527,607.19812 -743.63617,689.15032 C -696.89707,771.10256 -877.81257,820.40286 -819.88617,894.86906 C -761.95977,969.33546 -669.66437,806.09196 -601.72987,871.55666 C -533.79547,937.02126 -693.50817,1035.3013 -616.94867,1090.4317 C -540.38907,1145.5619 -497.79347,962.94566 -414.16737,1006.6191 C -330.54127,1050.2927 -456.09527,1189.6038 -367.10487,1220.9317 C -278.11457,1252.2594 -288.71027,1065.0251 -196.16737,1083.3691 C -103.62447,1101.7134 -184.84787,1270.7255 -90.636074,1275.7129 C 3.5755263,1280.7002 -59.348774,1104.0591 34.613926,1095.5879 C 128.57633,1087.1167 98.251026,1272.1577 190.05133,1250.4004 C 281.85183,1228.6432 171.71903,1076.8758 259.48893,1042.2754 C 347.25863,1007.675 370.31793,1193.7957 452.27013,1147.0567 C 534.22233,1100.3175 385.80383,985.70176 460.27013,927.77536 C 534.73653,869.84896 609.27403,1041.9287 674.73893,973.99406 C 740.20353,906.05966 565.48363,837.92876 620.61393,761.36906 C 675.74413,684.80952 795.75293,828.90146 839.42633,745.27532 C 883.09993,661.64922 696.28593,645.48452 727.61393,556.49402 C 758.94163,467.50372 914.67603,571.97442 933.02013,479.43162 C 951.36433,386.88862 767.56413,424.01812 772.55133,329.80662 C 777.53863,235.59492 956.39753,291.92532 947.92633,197.96282 C 939.45513,104.00032 773.55873,191.41972 751.80133,99.619019 C 730.04413,7.8185891 917.52683,11.482549 882.92633,-76.287181 C 848.32603,-164.05689 713.79053,-33.428731 667.05133,-115.38093 C 620.31223,-197.33312 801.22773,-246.66454 743.30133,-321.13093 C 685.37503,-395.5973 593.07963,-232.35377 525.14513,-297.81843 C 457.21073,-363.28306 616.89233,-461.56322 540.33263,-516.69343 C 463.77303,-571.82364 421.20883,-389.20744 337.58263,-432.88093 C 253.95653,-476.55443 379.51043,-615.83445 290.52013,-647.16218 C 201.52983,-678.48991 212.12563,-491.25546 119.58263,-509.59968 C 27.039726,-527.94389 108.26313,-696.98742 14.051326,-701.97468 C 12.579326,-702.05261 11.135326,-702.07786 9.7389263,-702.06843 z M -34.386074,-409.38093 C 144.65683,-407.13407 307.54363,-337.45694 430.05133,-224.59968 C 309.33713,-137.39285 129.91033,109.28022 41.895126,73.681619 C -45.463774,38.348399 -7.8684737,-260.95491 -34.386074,-409.38093 z M -140.29237,-402.75593 C -146.95377,-252.26606 -69.282374,39.932869 -151.22987,86.931619 C -234.60167,134.74722 -449.24757,-90.694271 -580.16737,-157.94343 C -471.47867,-288.16568 -316.34837,-378.28999 -140.29237,-402.75593 z M 502.23893,-147.28718 C 598.22753,-27.594251 655.67633,124.30652 655.67633,289.55662 C 655.67633,306.79382 655.06113,323.88092 653.83263,340.80662 C 514.85993,296.86782 200.37273,311.36092 172.52013,217.86902 C 145.11103,125.86592 406.32963,-33.540571 502.23893,-147.28718 z M -641.01117,-72.943431 C -533.76737,27.338249 -246.35767,151.52772 -261.38607,247.61902 C -276.65477,345.24662 -597.78327,373.32462 -726.60487,437.46282 C -736.89177,389.77722 -742.32367,340.30422 -742.32367,289.55662 C -742.32367,156.87142 -705.29537,32.770619 -641.01117,-72.943431 z M 229.98893,381.86902 C 344.11773,382.24682 531.92823,442.94772 638.61393,443.68162 C 598.93143,619.80242 492.67593,770.79706 347.73893,868.86906 C 295.98703,732.00192 87.117826,491.44822 142.33263,410.90032 C 156.99033,389.51762 188.66413,381.73232 229.98893,381.86902 z M -265.26107,415.40032 C -239.04747,415.13402 -218.34087,420.72332 -205.63607,434.74402 C -139.82517,507.37192 -316.57897,776.47656 -348.29237,918.61906 C -508.46807,840.76856 -634.50307,703.52072 -697.72987,535.58782 C -582.70587,521.00532 -375.49617,416.52032 -265.26107,415.40032 z M -22.979874,507.30662 C 72.861326,506.97272 169.46453,806.36146 258.48893,920.11906 C 167.10823,963.96706 64.745626,988.55666 -43.323674,988.55666 C -116.47497,988.55656 -187.00537,977.30416 -253.29237,956.43166 C -179.18757,831.14736 -123.09057,514.09012 -25.948674,507.43162 C -24.960274,507.36382 -23.968374,507.31002 -22.979874,507.30662 z"
         style="opacity:0.13812154;fill:#ffffff;fill-opacity:1;fill-rule:evenodd;stroke:#000000;stroke-width:2;stroke-linecap:round;stroke-linejoin:bevel;stroke-miterlimit:4;stroke-dasharray:6, 6;stroke-dashoffset:0;stroke-opacity:1" />
    </g>
    <g
       transform="matrix(0.4867676,0,0,0.4867676,7.1537896,51.250794)"
       id="g3016">
      <path
         sodipodi:cy="372.73428"
         style="fill:#000000;fill-opacity:1;fill-rule:evenodd;stroke:none;stroke-width:1.2604183;stroke-linecap:round;stroke-linejoin:bevel;stroke-miterlimit:4;stroke-dasharray:none;stroke-dashoffset:0;stroke-opacity:1"
         id="path3512"
         sodipodi:ry="101.75374"
         sodipodi:rx="94.679947"
         d="M 1026.2435,372.73428 A 94.679947,101.75374 0 1 1 836.88365,372.73428 A 94.679947,101.75374 0 1 1 1026.2435,372.73428 z"
         transform="matrix(1.159251,0,0,1.081041,-969.6735,-12.94101)"
         sodipodi:type="arc"
         sodipodi:cx="931.5636"
         inkscape:export-filename="/home/torkildr/Desktop/agregator.png"
         inkscape:export-xdpi="52.360001"
         inkscape:export-ydpi="52.360001"
         inkscape:label="Background" />
      <path
         style="opacity:0.76878614;fill:url(#radialGradient2808);fill-opacity:1;fill-rule:nonzero;stroke:none;stroke-width:0.25;stroke-linecap:round;stroke-linejoin:bevel;stroke-miterlimit:0;stroke-opacity:1"
         id="Background_hilght"
         d="M 212.65574,425.932 C 209.28637,435.2086 126.01637,388.01871 121.12198,396.60701 C 116.22756,405.19532 199.65583,452.10769 193.38504,459.74669 C 187.11459,467.38559 125.61555,393.75867 118.15927,400.21624 C 110.70304,406.67379 172.44307,480.09199 164.02768,485.17199 C 155.61236,490.25189 123.30195,399.06845 114.18324,402.61639 C 105.06449,406.16433 137.66964,497.23309 128.12456,499.14129 C 118.57946,501.04939 119.35484,403.30754 109.67342,403.51796 C 99.992031,403.72836 99.529651,501.46339 90.006068,499.96969 C 80.482545,498.47589 114.25011,405.96471 105.17378,402.81217 C 96.097445,399.65964 62.623308,492.27279 54.269943,487.55729 C 45.916627,482.84179 108.60356,406.71944 101.22706,400.58423 C 93.850524,394.44901 31.402069,470.76969 25.226508,463.40109 C 19.050916,456.03269 103.09624,405.48069 98.309264,397.10277 C 93.522288,388.72489 9.6317032,439.54763 6.378742,430.41488 C 3.1258108,421.28214 98.392391,402.39789 96.772306,392.78781 C 95.152241,383.17774 -0.061974227,402.37262 3.89184e-05,392.57718 C 0.062042086,382.78171 95.059366,397.84284 96.801611,388.1597 C 98.543847,378.47655 3.4902166,363.72844 6.8597206,354.45175 C 10.229264,345.17508 93.499199,392.36499 98.393628,383.77671 C 103.28807,375.18842 19.859871,328.27611 26.130473,320.6371 C 32.401054,312.99814 93.900075,386.62503 101.35633,380.16749 C 108.81257,373.70993 47.072537,300.29172 55.487875,295.21182 C 63.903224,290.13186 96.213609,381.31527 105.33237,377.76733 C 114.45111,374.21938 81.845976,283.15064 91.391042,281.24248 C 100.93613,279.33433 100.16078,377.07619 109.84217,376.86579 C 119.52359,376.65536 119.98595,278.92034 129.50948,280.41407 C 139.03302,281.90782 105.2655,374.41901 114.34181,377.57155 C 123.41813,380.72405 156.89228,288.11099 165.24556,292.82652 C 173.59892,297.54199 110.91202,373.66431 118.28852,379.7995 C 125.66507,385.93471 188.11348,309.61411 194.28898,316.98261 C 200.46454,324.35112 116.41937,374.90301 121.20636,383.28093 C 125.99333,391.65883 209.88376,340.83613 213.13668,349.96886 C 216.3896,359.10159 121.12322,377.98582 122.74327,387.59594 C 124.36337,397.206 219.57746,378.01112 219.5155,387.80656 C 219.45354,397.60202 124.45623,382.54086 122.71398,392.22403 C 120.97175,401.90718 216.0254,416.65532 212.65574,425.932 z"
         inkscape:export-filename="/home/torkildr/Desktop/agregator.png"
         inkscape:export-xdpi="52.360001"
         inkscape:export-ydpi="52.360001"
         inkscape:label="Background hilght" />
      <g
         id="g1388"
         transform="matrix(0.997798,0,0,1,-805.8823,13.10929)"
         inkscape:export-filename="/home/torkildr/Desktop/agregator.png"
         inkscape:export-xdpi="52.360001"
         inkscape:export-ydpi="52.360001"
         inkscape:label="Logo">
        <path
           sodipodi:nodetypes="cccccccccccccccccsscc"
           inkscape:export-ydpi="53.41"
           inkscape:export-xdpi="53.41"
           inkscape:export-filename="/home/torkildr/Desktop/vdftools.png"
           d="M 942.71541,304.01767 C 921.24237,304.01768 902.50634,310.25021 886.31738,325.31035 L 882.74106,310.49245 L 877.86717,310.46023 L 872.61347,331.33414 L 859.98563,312.58628 L 855.49151,314.6479 L 861.53642,339.99939 L 836.24908,327.27532 L 833.43235,331.43078 L 855.30162,352.17585 L 830.64726,356.04138 L 830.48901,361.03437 L 852.35828,365.80187 L 835.26797,378.30044 L 837.23019,382.87467 L 853.90907,379.4279 C 852.94725,382.65742 852.19461,385.60672 851.56707,389.86486 C 844.57912,437.28148 874.47587,476.42071 918.06105,476.42073 C 926.80824,476.42072 935.60126,475.85989 943.85477,473.00617 C 1032.8309,454.4925 1041.215,304.16961 942.71541,304.01767 z"
           id="path3503"
           style="fill:#ffffff;fill-opacity:1;fill-rule:evenodd;stroke:#000000;stroke-width:6.00661898;stroke-linecap:round;stroke-linejoin:bevel;stroke-miterlimit:0;stroke-dasharray:none;stroke-dashoffset:0;stroke-opacity:1" />
        <path
           inkscape:export-ydpi="53.41"
           inkscape:export-xdpi="53.41"
           inkscape:export-filename="/home/torkildr/Desktop/vdftools.png"
           id="LogoHighlight"
           sodipodi:nodetypes="ccccccccccccccccccccccccccccccccccccccccccccccccccc"
           d="M 866.78478,381.97549 C 859.10977,407.48991 873.17206,454.74427 899.61286,466.48373 C 869.96776,457.6179 851.76026,427.4385 857.23786,390.92123 C 858.08856,385.25027 858.72486,382.94884 860.58166,377.57748 L 861.98786,373.48373 L 857.76916,374.35873 L 848.48786,376.23373 L 860.55036,367.60873 L 865.08166,364.32748 L 859.61286,363.17123 L 845.67536,360.20248 L 861.83166,357.70248 L 866.86286,356.92123 L 863.14416,353.45248 L 850.17536,341.35873 L 864.76916,348.57748 L 869.51916,350.92123 L 868.26916,345.76498 L 864.20666,329.10873 L 872.14416,340.63998 L 874.86076,344.27519 L 876.58166,339.85873 L 880.67536,323.92123 L 882.86286,332.76498 L 883.92536,337.04623 L 887.01916,333.92123 C 899.89286,320.94982 914.19536,314.54188 930.73786,312.57748 C 905.17796,319.5179 877.18858,344.07329 866.78478,381.97549 z M 1013.3316,364.88998 C 1007.3849,338.2328 992.96186,317.30725 969.64636,310.27952 C 961.54056,306.71509 952.14776,306.88998 942.36286,306.88998 C 921.16036,306.88999 902.66036,312.93624 886.67536,327.54623 L 883.14416,313.17123 L 878.33166,313.13998 L 873.14416,333.38998 L 860.67536,315.20248 L 856.23786,317.20248 L 862.20666,341.79623 L 837.23786,329.45248 L 834.45666,333.48373 L 856.05036,353.60873 L 831.70666,357.35873 L 831.55036,362.20248 L 853.14416,366.82748 L 836.26916,378.95248 L 838.20666,383.38998 L 854.67536,380.04623 C 853.72566,383.17922 852.98256,386.04037 852.36286,390.17123 C 845.46296,436.17059 874.98306,474.13996 918.01916,474.13998 C 926.65616,474.13997 935.32386,473.6024 943.47336,470.83398 C 978.09226,462.48411 1007.656,429.29 1013.4254,390.82748"
           style="fill:url(#radialGradient1997);fill-opacity:1;fill-rule:evenodd;stroke:none;stroke-width:4.9428401;stroke-linecap:butt;stroke-linejoin:miter;stroke-miterlimit:4;stroke-dashoffset:1;stroke-opacity:1"
           inkscape:label="Logo hilight" />
      </g>
      <path
         sodipodi:nodetypes="cccsssccccssccscssc"
         id="text2430"
         d="M 187.11047,354.6483 C 180.51519,352.99948 165.05554,354.17721 165.05554,354.17721 L 162.70542,367.55479 C 156.92053,356.88889 147.33927,351.82709 133.23859,351.82709 C 99.252341,351.82709 70.870145,380.9324 70.870145,415.82254 C 70.870145,440.40834 87.501756,456.67839 112.81067,456.67839 C 126.91134,456.67839 138.70024,452.2137 149.20184,442.25443 L 159.21521,451.11791 C 168.16596,458.89093 179.12152,456.68374 179.12152,456.68374 C 189.95663,448.20408 197.64326,429.8315 197.64326,429.8315 C 193.63898,433.55093 181.39046,438.655 171.96814,431.94188 C 167.34805,428.65021 170.87139,418.18803 172.44378,410.58305 C 174.68035,399.76576 174.97985,398.81317 177.68863,388.80247 M 131.43081,373.88202 C 146.2546,373.88202 155.65508,383.10172 155.65508,397.74473 C 155.65508,405.3374 153.12418,413.47243 148.96629,419.79966 C 142.09673,429.56167 132.51547,434.62346 120.04179,434.62346 C 105.218,434.62346 95.636745,425.40377 95.636745,410.94153 C 95.636745,391.05596 112.26835,373.88202 131.43081,373.88202"
         style="font-size:7.53242111px;font-style:normal;font-weight:normal;line-height:125%;fill:#ffffff;fill-opacity:1;stroke:none;stroke-width:1px;stroke-linecap:butt;stroke-linejoin:miter;stroke-opacity:1;font-family:Bitstream Vera Sans" />
    </g>
    <text
       xml:space="preserve"
       style="font-size:36px;font-style:normal;font-variant:normal;font-weight:normal;font-stretch:normal;text-align:center;line-height:125%;writing-mode:lr-tb;text-anchor:middle;fill:#ffffff;fill-opacity:1;stroke:none;stroke-width:1px;stroke-linecap:butt;stroke-linejoin:miter;stroke-opacity:1;font-family:Bitstream Vera Sans;-inkscape-font-specification:Bitstream Vera Sans"
       x="263.8678"
       y="227.42802"
       id="text2612"
       sodipodi:linespacing="125%"><tspan
         sodipodi:role="line"
         id="tspan3392"
         x="263.8678"
         y="227.42802">Resheim</tspan><tspan
         sodipodi:role="line"
         id="tspan3394"
         x="263.8678"
         y="272.42804">Aggregator</tspan></text>
  </g>
</svg>
